<?xml version="1.0" standalone="no"?>
<!DOCTYPE svg PUBLIC "-//W3C//DTD SVG 20010904//EN"
 "http://www.w3.org/TR/2001/REC-SVG-20010904/DTD/svg10.dtd">
<svg version="1.0" xmlns="http://www.w3.org/2000/svg"
 width="500.000000pt" height="500.000000pt" viewBox="0 0 500.000000 500.000000"
 preserveAspectRatio="xMidYMid meet">
<metadata>
Created by potrace 1.14, written by Peter Selinger 2001-2017
</metadata>
<g transform="translate(0.000000,500.000000) scale(0.100000,-0.100000)"
fill="#000000" stroke="none">
<path d="M1305 4780 c-22 -4 -60 -11 -84 -14 -59 -8 -204 -46 -216 -57 -5 -5
-16 -9 -25 -9 -24 0 -212 -94 -292 -146 -253 -163 -457 -407 -573 -684 -31
-74 -73 -208 -81 -260 -3 -19 -7 -37 -9 -40 -18 -30 -27 -368 -13 -485 35
-282 175 -588 367 -801 35 -40 1277 -1295 1882 -1902 84 -85 164 -158 177
-163 36 -14 110 -11 142 6 16 8 71 57 122 109 51 51 485 488 963 971 479 482
898 907 933 943 72 77 168 209 219 302 70 129 143 340 168 485 11 66 14 376 4
435 -16 98 -19 115 -24 138 -3 12 -7 30 -9 41 -7 32 -46 155 -55 176 -56 125
-96 205 -103 205 -4 0 -8 5 -8 12 0 34 -130 201 -244 313 -245 242 -565 391
-906 421 -110 10 -285 4 -364 -12 -12 -2 -34 -7 -51 -10 -225 -40 -506 -175
-674 -323 l-45 -39 -77 64 c-205 166 -432 269 -709 320 -54 9 -370 13 -415 4z"/>
</g>
</svg>
